<?xml version="1.0" encoding="UTF-8"?>
<svg width="582px" height="526px" viewBox="0 0 582 526" version="1.1" xmlns="http://www.w3.org/2000/svg" xmlns:xlink="http://www.w3.org/1999/xlink">
    <!-- Generator: Sketch 46.2 (44496) - http://www.bohemiancoding.com/sketch -->
    <title>Combined Shape</title>
    <desc>Created with Sketch.</desc>
    <defs>
        <linearGradient x1="0%" y1="50%" x2="100%" y2="50%" id="linearGradient-1">
            <stop stop-color="#73008B" offset="0%"></stop>
            <stop stop-color="#FF1499" offset="100%"></stop>
        </linearGradient>
    </defs>
    <g id="Prototype-1-(Minimum)" stroke="none" stroke-width="1" fill="none" fill-rule="evenodd" opacity="0.900000036">
        <g id="A4" transform="translate(-274.000000, -1231.000000)" fill="url(#linearGradient-1)">
            <g id="Group-6" transform="translate(39.000000, 795.000000)">
                <g id="Group-4">
                    <path d="M665.696544,660.340203 L547.772227,519.52127 C546.055504,517.471081 546.321991,514.415854 548.368104,512.695713 L600.218617,469.100851 C602.264731,467.38071 605.31503,467.648873 607.030609,469.697915 L747.246014,637.134915 C758.485343,650.555683 758.485343,670.124723 747.246014,683.545491 L607.053483,850.954987 C605.336761,853.004029 602.287605,853.272193 600.241491,851.552052 L548.389835,807.95719 C546.344865,806.237048 546.077235,803.180675 547.793957,801.131633 L665.696544,660.340203 Z M221.450824,873.495597 C218.650999,873.495597 216.380717,871.220794 216.380717,868.415394 L216.380717,452.265013 C216.380717,449.459613 218.650999,447.184809 221.450824,447.184809 L288.667205,447.184809 C291.468173,447.184809 293.737312,449.459613 293.737312,452.265013 L293.737312,868.415394 C293.737312,871.220794 291.468173,873.495597 288.667205,873.495597 L221.450824,873.495597 Z M438.599649,660.340203 L375.834624,487.546815 C374.920792,485.032498 376.214339,482.25231 378.723659,481.337804 L442.329318,458.141684 C444.838638,457.226033 447.613301,458.522155 448.525989,461.036472 L516.412589,647.926767 C519.324498,655.945306 519.324498,664.735101 516.412589,672.75364 L448.532851,859.616431 C447.619019,862.129602 444.8455,863.42687 442.33618,862.511218 L378.730521,839.315098 C376.222345,838.399447 374.927655,835.619259 375.841486,833.106088 L438.599649,660.340203 Z" id="Combined-Shape" transform="translate(486.028114, 660.340203) scale(-1, 1) rotate(-23.300000) translate(-486.028114, -660.340203) "></path>
                </g>
            </g>
        </g>
    </g>
</svg>