<svg xmlns="http://www.w3.org/2000/svg" xmlns:xlink="http://www.w3.org/1999/xlink" viewBox="0 0 30 50"><defs><style>.cls-1{fill:#e2dde2;}.cls-2{fill:#390e45;}.cls-3{fill:#ed2a91;}.cls-4{fill:url(#linear-gradient);}.cls-5{fill:none;stroke-linecap:round;stroke-miterlimit:10;opacity:0.39;stroke:url(#linear-gradient-2);}</style><linearGradient id="linear-gradient" x1="15" y1="37.85" x2="15" y2="44.85" gradientUnits="userSpaceOnUse"><stop offset="0" stop-color="#381245"/><stop offset="1" stop-color="#652a78"/></linearGradient><linearGradient id="linear-gradient-2" x1="11.5" y1="3.85" x2="18.5" y2="3.85" gradientUnits="userSpaceOnUse"><stop offset="0" stop-opacity="0"/><stop offset="1"/></linearGradient></defs><title>what-we-doAsset 8</title><g id="Layer_2" data-name="Layer 2"><g id="Layer_1-2" data-name="Layer 1"><rect class="cls-1" width="30" height="50" rx="6" ry="6"/><rect class="cls-2" x="3" y="3" width="24" height="44" rx="3" ry="3"/><path class="cls-3" d="M27,6a3,3,0,0,0-3-3H6A3,3,0,0,0,3,6V20.85a4,4,0,0,0,8,0v-3a4,4,0,0,1,8-.21V30.93a4,4,0,0,0,8,0V18.05c0-.07,0-.14,0-.2Z"/><circle class="cls-4" cx="15" cy="41.35" r="3.5"/><rect class="cls-1" x="8" y="1.85" width="14" height="5" rx="1" ry="1"/><line class="cls-5" x1="12" y1="3.85" x2="18" y2="3.85"/></g></g></svg>