<svg xmlns="http://www.w3.org/2000/svg" xmlns:xlink="http://www.w3.org/1999/xlink" viewBox="0 0 51 42"><defs><style>.cls-1,.cls-3,.cls-4{fill:none;stroke-width:4px;}.cls-1{stroke:#ed2a91;stroke-linecap:round;stroke-linejoin:round;}.cls-2,.cls-7{fill:#ed2a91;}.cls-3{stroke:#e2dde2;}.cls-3,.cls-4{stroke-miterlimit:10;}.cls-4{stroke:url(#linear-gradient);}.cls-5{fill:#e2dde2;}.cls-6,.cls-7,.cls-8{opacity:0.39;}.cls-6{fill:url(#linear-gradient-2);}.cls-8{fill:url(#linear-gradient-3);}</style><linearGradient id="linear-gradient" x1="4.5" y1="24.5" x2="46.5" y2="24.5" gradientUnits="userSpaceOnUse"><stop offset="0" stop-color="#381245" stop-opacity="0"/><stop offset="1" stop-color="#652a78"/></linearGradient><linearGradient id="linear-gradient-2" x1="-118" y1="-9" x2="-109" y2="-9" gradientTransform="translate(13.5 -81.5) rotate(-90)" gradientUnits="userSpaceOnUse"><stop offset="0"/><stop offset="1" stop-opacity="0"/></linearGradient><linearGradient id="linear-gradient-3" x1="-103" y1="33" x2="-94" y2="33" xlink:href="#linear-gradient-2"/></defs><title>what-we-doAsset 5</title><g id="Layer_2" data-name="Layer 2"><g id="Layer_1-2" data-name="Layer 1"><path class="cls-1" d="M4.5,34V7a5,5,0,0,1,5-5h13"/><circle class="cls-2" cx="28.5" cy="2" r="2"/><circle class="cls-2" cx="34.5" cy="2" r="2"/><circle class="cls-2" cx="40.5" cy="2" r="2"/><circle class="cls-2" cx="46.5" cy="2" r="2"/><path class="cls-3" d="M4.5,34v2a4,4,0,0,0,4,4h34a4,4,0,0,0,4-4V18"/><path class="cls-4" d="M4.5,32h5a4,4,0,0,0,4-4V21a4,4,0,0,1,4-4h29"/><circle class="cls-5" cx="4.5" cy="32" r="4.5"/><circle class="cls-6" cx="4.5" cy="32" r="4.5"/><circle class="cls-2" cx="4.5" cy="32" r="2"/><circle class="cls-7" cx="4.5" cy="32" r="2"/><circle class="cls-5" cx="46.5" cy="17" r="4.5"/><circle class="cls-8" cx="46.5" cy="17" r="4.5"/><circle class="cls-2" cx="46.5" cy="17" r="2"/><circle class="cls-7" cx="46.5" cy="17" r="2"/><circle class="cls-2" cx="46.5" cy="8" r="2"/></g></g></svg>