<svg xmlns="http://www.w3.org/2000/svg" xmlns:xlink="http://www.w3.org/1999/xlink" viewBox="0 0 53 46"><defs><style>.cls-1{fill:#e2dde2;}.cls-2{fill:#876093;}.cls-3{fill:#ed2a91;}.cls-4{fill:url(#linear-gradient);}.cls-5{fill:#e2dee3;}.cls-6{fill:url(#linear-gradient-2);}.cls-7{fill:url(#linear-gradient-3);}.cls-10,.cls-8,.cls-9{fill:none;stroke-linecap:round;stroke-width:2px;}.cls-8,.cls-9{stroke-miterlimit:10;}.cls-8{stroke:url(#linear-gradient-4);}.cls-9{stroke:url(#linear-gradient-5);}.cls-10{stroke:#ed2a91;stroke-linejoin:round;}.cls-11,.cls-12,.cls-13{fill:#fff;}.cls-12{opacity:0.7;}.cls-13{opacity:0.3;}</style><linearGradient id="linear-gradient" y1="34" x2="24" y2="34" gradientUnits="userSpaceOnUse"><stop offset="0" stop-color="#381245" stop-opacity="0"/><stop offset="1" stop-color="#652a78"/></linearGradient><linearGradient id="linear-gradient-2" x1="46" y1="41" x2="50" y2="41" gradientUnits="userSpaceOnUse"><stop offset="0" stop-color="#ec2c91" stop-opacity="0"/><stop offset="1" stop-color="#ec2c91"/></linearGradient><linearGradient id="linear-gradient-3" x1="43" y1="41" x2="47" y2="41" xlink:href="#linear-gradient"/><linearGradient id="linear-gradient-4" x1="24" y1="36" x2="50" y2="36" xlink:href="#linear-gradient"/><linearGradient id="linear-gradient-5" x1="24" y1="41" x2="41" y2="41" xlink:href="#linear-gradient"/></defs><title>what-we-doAsset 7</title><g id="Layer_2" data-name="Layer 2"><g id="Layer_1-2" data-name="Layer 1"><circle class="cls-1" cx="12" cy="9" r="8"/><path class="cls-2" d="M7,10a5,5,0,0,0,10,0"/><path class="cls-3" d="M6,22H18a6,6,0,0,1,6,6V46a0,0,0,0,1,0,0H2a2,2,0,0,1-2-2V28A6,6,0,0,1,6,22Z"/><path class="cls-4" d="M6,22H18a6,6,0,0,1,6,6V46a0,0,0,0,1,0,0H2a2,2,0,0,1-2-2V28A6,6,0,0,1,6,22Z"/><path class="cls-5" d="M18,22A6,6,0,0,1,6,22"/><rect class="cls-1" x="21" y="27" width="31" height="19" rx="2" ry="2"/><circle class="cls-6" cx="48" cy="41" r="2"/><circle class="cls-7" cx="45" cy="41" r="2"/><line class="cls-8" x1="25" y1="36" x2="49" y2="36"/><line class="cls-9" x1="25" y1="41" x2="40" y2="41"/><line class="cls-10" x1="25" y1="31" x2="30" y2="31"/><path class="cls-3" d="M51,16H29a2,2,0,0,1-2-2V11.83a2,2,0,0,0-.59-1.42l-.95-.95a2,2,0,0,1,0-2.87l.87-.83A2,2,0,0,0,27,4.3V2a2,2,0,0,1,2-2H51a2,2,0,0,1,2,2V14A2,2,0,0,1,51,16Z"/><circle class="cls-11" cx="34" cy="8" r="2"/><circle class="cls-12" cx="40" cy="8" r="2"/><circle class="cls-13" cx="46" cy="8" r="2"/></g></g></svg>